<svg xmlns="http://www.w3.org/2000/svg" xmlns:xlink="http://www.w3.org/1999/xlink" version="1.1" id="Layer_1" x="0" y="0" viewBox="0 0 80 80" xml:space="preserve" enable-background="new 0 0 80 80"><style type="text/css">
	.st0{fill:#4A6DA7;}
	.st1{fill:#FFFFFF;}
</style><g id="XMLID_378_"><rect id="XMLID_379_" class="st0" width="80" height="80"/><path id="XMLID_380_" class="st1" d="M22.7 41.2c-1.6 0-3-0.2-4.1-0.7 -1.1-0.5-2.1-1.1-3.1-1.8l1.5-2.8c0.9 0.7 1.7 1.2 2.6 1.6 0.9 0.4 1.8 0.6 2.8 0.6 1.4 0 2.4-0.5 3.2-1.5 0.7-1 1.1-2.4 1.1-4.1V13.3h3.5v19c0 2.7-0.6 4.8-1.8 6.4C27.2 40.4 25.3 41.2 22.7 41.2M39.9 40.9h3l6.5-20.6 5.9 20.6h3.1l6.7-27.5h-3.7c0 0-4.4 19.9-4.7 20.9L51 14.4h-3l-6.1 19.9 -4.4-20.9h-3.8L39.9 40.9zM27.5 66c1-0.5 1.8-1.1 2.5-2 0.7-0.9 1.2-1.9 1.6-3.1 0.4-1.2 0.6-2.5 0.6-4 0-1.4-0.2-2.8-0.6-3.9 -0.4-1.2-0.9-2.2-1.7-3 -0.7-0.8-1.6-1.5-2.5-1.9 -1-0.5-2.1-0.7-3.3-0.7 -1.2 0-2.3 0.2-3.3 0.7 -1 0.5-1.9 1.1-2.6 1.9 -0.7 0.8-1.3 1.9-1.7 3 -0.4 1.2-0.6 2.5-0.6 4 0 1.4 0.2 2.8 0.5 3.9 0.4 1.2 0.9 2.2 1.6 3.1 0.7 0.8 1.5 1.5 2.5 2 1 0.5 2.2 0.7 3.5 0.7C25.4 66.7 26.5 66.5 27.5 66zM26.6 49.7c0.7 0.4 1.4 1 1.9 1.7 0.5 0.7 0.9 1.5 1.2 2.5 0.3 0.9 0.4 2 0.4 3.1 0 1.2-0.2 2.2-0.4 3.2 -0.3 1-0.7 1.8-1.2 2.5 -0.5 0.7-1.2 1.3-1.9 1.7C25.8 64.8 25 65 24.2 65c-0.9 0-1.7-0.2-2.5-0.6 -0.7-0.4-1.4-1-1.9-1.7 -0.5-0.7-0.9-1.6-1.2-2.5 -0.3-1-0.4-2-0.4-3.2 0-1.1 0.1-2.2 0.4-3.1 0.3-0.9 0.7-1.8 1.2-2.5 0.5-0.7 1.2-1.3 1.9-1.6 0.7-0.4 1.6-0.6 2.5-0.6C25 49.1 25.9 49.3 26.6 49.7zM48.8 66.4l-5.2-8.1 0.3-0.1c0.6-0.1 1.2-0.4 1.7-0.6 0.5-0.3 1-0.6 1.4-1 0.4-0.4 0.7-0.9 0.9-1.5 0.2-0.6 0.3-1.2 0.3-1.9 0-0.9-0.2-1.8-0.5-2.4 -0.3-0.7-0.8-1.2-1.4-1.7 -0.6-0.4-1.3-0.8-2.1-1 -0.8-0.2-1.6-0.3-2.4-0.3h-6.1v18.7h2v-7.8h3.8l4.9 7.8H48.8zM37.6 49.4h4c1.3 0 2.4 0.3 3.2 1 0.8 0.7 1.2 1.6 1.2 2.8 0 1.2-0.4 2.1-1.3 2.7 -0.8 0.6-1.9 0.9-3.4 0.9h-3.8V49.4zM61 66.5c0.6-0.1 1.1-0.3 1.6-0.5 0.5-0.2 0.9-0.5 1.3-0.7 0.4-0.2 0.7-0.5 1-0.8v-8h-6.4v1.7H63v5.4l-0.1 0.1c-0.3 0.3-0.8 0.6-1.4 0.9C60.8 64.8 60 65 59.2 65c-0.9 0-1.8-0.2-2.5-0.6 -0.8-0.4-1.4-0.9-2-1.6 -0.6-0.7-1-1.5-1.3-2.5 -0.3-1-0.5-2-0.5-3.2 0-1.1 0.2-2.2 0.5-3.2 0.3-1 0.8-1.8 1.3-2.5 0.6-0.7 1.2-1.3 2-1.6 0.8-0.4 1.6-0.6 2.4-0.6 1 0 1.9 0.2 2.7 0.6 0.7 0.3 1.3 0.8 1.9 1.2l1.2-1.6c-0.8-0.6-1.6-1.1-2.5-1.5 -0.9-0.4-2-0.5-3.2-0.5 -1.2 0-2.4 0.2-3.4 0.7 -1 0.5-1.9 1.2-2.6 2 -0.7 0.9-1.3 1.9-1.7 3 -0.4 1.2-0.6 2.5-0.6 3.8 0 1.5 0.2 2.8 0.6 4 0.4 1.2 1 2.2 1.7 3.1 0.7 0.8 1.6 1.5 2.7 2 1 0.5 2.2 0.7 3.5 0.7C59.8 66.7 60.4 66.6 61 66.5zM14.7 63.5h-2.9v2.9h2.9V63.5z"/></g></svg>
